




























<svg width="300" height="100" viewBox="0 0 300 100" fill="none" xmlns="http://www.w3.org/2000/svg">
<g filter="url(#filter0_b)">
<rect width="300" height="100" rx="20" fill="white" fill-opacity="0.8"/>
</g>

<text x="110" y="45" font-family="Arial" font-size="24" font-weight="bold" fill="#595959">22 / June</text>
<text x="110" y="75" font-family="Arial" font-size="19" fill="#595959">You Booked Me Su...</text>
<rect x="28" y="25" width="50" height="50" rx="8" fill="#2e0204"/>
<g clip-path="url(#clip0)">
<path d="M46.125 36.25C45.5826 36.25 45.1429 36.6897 45.1429 37.2322V39.1964H47.1071V37.2322C47.1071 36.6897 46.6674 36.25 46.125 36.25Z" fill="white"/>
<path d="M59.875 36.25C59.3325 36.25 58.8928 36.6897 58.8928 37.2322V39.1964H60.8571V37.2322C60.8571 36.6897 60.4174 36.25 59.875 36.25Z" fill="white"/>
<path d="M63.8036 39.1964H60.8571V43.125C60.8571 43.6675 60.4174 44.1072 59.875 44.1072C59.3325 44.1072 58.8928 43.6675 58.8928 43.125V39.1964H47.1071V43.125C47.1071 43.6675 46.6674 44.1072 46.125 44.1072C45.5825 44.1072 45.1428 43.6675 45.1428 43.125V39.1964H42.1964C40.5692 39.1964 39.25 40.5156 39.25 42.1429V60.8036C39.25 62.4309 40.5692 63.75 42.1964 63.75H63.8036C65.4308 63.75 66.75 62.4309 66.75 60.8036V42.1429C66.75 40.5156 65.4308 39.1964 63.8036 39.1964ZM64.7857 60.8036C64.7857 61.346 64.346 61.7857 63.8035 61.7857H42.1964C41.654 61.7857 41.2143 61.346 41.2143 60.8036V48.0357H64.7857V60.8036Z" fill="white"/>
<path d="M47.1071 50H45.1428C44.6004 50 44.1607 50.4397 44.1607 50.9822C44.1607 51.5246 44.6004 51.9643 45.1428 51.9643H47.1071C47.6495 51.9643 48.0893 51.5246 48.0893 50.9822C48.0893 50.4397 47.6495 50 47.1071 50Z" fill="white"/>
<path d="M53.9821 50H52.0179C51.4754 50 51.0357 50.4397 51.0357 50.9822C51.0357 51.5246 51.4754 51.9643 52.0179 51.9643H53.9821C54.5246 51.9643 54.9643 51.5246 54.9643 50.9822C54.9643 50.4397 54.5246 50 53.9821 50Z" fill="white"/>
<path d="M60.8572 50H58.8929C58.3505 50 57.9107 50.4397 57.9107 50.9822C57.9107 51.5246 58.3505 51.9643 58.8929 51.9643H60.8572C61.3996 51.9643 61.8393 51.5246 61.8393 50.9822C61.8393 50.4397 61.3995 50 60.8572 50Z" fill="white"/>
<path d="M47.1071 53.9286H45.1428C44.6004 53.9286 44.1607 54.3683 44.1607 54.9107C44.1607 55.4532 44.6004 55.8929 45.1428 55.8929H47.1071C47.6495 55.8929 48.0893 55.4532 48.0893 54.9107C48.0893 54.3683 47.6495 53.9286 47.1071 53.9286Z" fill="white"/>
<path d="M53.9821 53.9286H52.0179C51.4754 53.9286 51.0357 54.3683 51.0357 54.9107C51.0357 55.4532 51.4754 55.8929 52.0179 55.8929H53.9821C54.5246 55.8929 54.9643 55.4532 54.9643 54.9107C54.9643 54.3683 54.5246 53.9286 53.9821 53.9286Z" fill="white"/>
<path d="M60.8572 53.9286H58.8929C58.3505 53.9286 57.9107 54.3683 57.9107 54.9107C57.9107 55.4532 58.3505 55.8929 58.8929 55.8929H60.8572C61.3996 55.8929 61.8393 55.4532 61.8393 54.9107C61.8393 54.3683 61.3995 53.9286 60.8572 53.9286Z" fill="white"/>
<path d="M47.1071 57.8571H45.1428C44.6004 57.8571 44.1607 58.2968 44.1607 58.8393C44.1607 59.3817 44.6004 59.8214 45.1428 59.8214H47.1071C47.6495 59.8214 48.0893 59.3817 48.0893 58.8392C48.0893 58.2968 47.6495 57.8571 47.1071 57.8571Z" fill="white"/>
<path d="M53.9821 57.8571H52.0179C51.4754 57.8571 51.0357 58.2968 51.0357 58.8393C51.0357 59.3817 51.4754 59.8214 52.0179 59.8214H53.9821C54.5246 59.8214 54.9643 59.3817 54.9643 58.8393C54.9643 58.2968 54.5246 57.8571 53.9821 57.8571Z" fill="white"/>
<path d="M60.8572 57.8571H58.8929C58.3505 57.8571 57.9107 58.2968 57.9107 58.8393C57.9107 59.3817 58.3505 59.8214 58.8929 59.8214H60.8572C61.3996 59.8214 61.8393 59.3817 61.8393 58.8393C61.8393 58.2968 61.3995 57.8571 60.8572 57.8571Z" fill="white"/>
</g>
<defs>
<filter id="filter0_b" x="-20" y="-20" width="340" height="140" filterUnits="userSpaceOnUse" color-interpolation-filters="sRGB">
<feFlood flood-opacity="0" result="BackgroundImageFix"/>
<feGaussianBlur in="BackgroundImage" stdDeviation="10"/>
<feComposite in2="SourceAlpha" operator="in" result="effect1_backgroundBlur"/>
<feBlend mode="normal" in="SourceGraphic" in2="effect1_backgroundBlur" result="shape"/>
</filter>
<clipPath id="clip0">
<rect width="27.5" height="27.5" fill="white" transform="translate(39.25 36.25)"/>
</clipPath>
</defs>
</svg>
